<?xml version="1.0" encoding="utf-8"?>
<!-- Generator: Adobe Illustrator 26.1.0, SVG Export Plug-In . SVG Version: 6.00 Build 0)  -->
<svg version="1.1" id="Layer_1" xmlns="http://www.w3.org/2000/svg" xmlns:xlink="http://www.w3.org/1999/xlink" x="0px" y="0px"
	 viewBox="0 0 5000 5000" style="background-color:transparent;" xml:space="preserve">
<style type="text/css">
	.st0{fill:#EE245F;}
</style>
<g>
	<path class="st0" d="M1470.2,3333.9c4.3-13,7.9-19.5,8.5-26.2c5.3-62.6,9.2-125.3,15.3-187.9c2.5-25.6-9.7-28.2-30.4-28.2
		c-416.6,0.4-833.3,0.3-1249.9,0.3c-59.6,0-72.4-8.6-94.4-63.8c-8-20-15-40.4-23.8-59.9c-11.4-25.4-7.6-47.1,9.4-69.2
		c82.5-107.9,164.2-216.3,246.2-324.6c28-36.9,28.2-51.3,1.4-88.4c-56.3-77.8-113.2-155.2-168.2-234c-10.1-14.5-16.8-34.7-16.9-52.3
		c-1.2-204.6-0.8-409.2-0.7-613.8c0-42.9,19-62.1,61.9-62.3c43.9-0.3,87.8-0.2,131.7,0c51.9,0.2,73.8,28.7,60.5,79
		c-38.3,144.5-76,289.1-115.6,433.2c-9,32.7-3.2,55.8,20.9,80c109.3,109.7,217,221,325.3,331.7c33,33.8,34.4,55.9,4.2,92.7
		c-98.7,120.3-197.7,240.4-297.5,361.8c181.4,0,360.9,0,543.3,0c0-19.5,1-35.7-0.2-51.8c-5.9-83.3-12.4-166.6-18.5-249.9
		c-7.7-104.7-15.5-209.4-23-314.2c-5.8-80-11.2-160-16.8-240.1c-1.2-16.5-3.6-32.9-4.1-49.4c-0.7-23.1,7.4-30.5,29.9-26.4
		c54.4,9.9,108.6,20.8,163,31.2c16.3,3.1,20.9,14.4,21,29c0.6,61.3,1.5,122.6,1.9,183.8c0.4,67.9-0.1,135.8,0.8,203.8
		c0.1,9.6,6.4,19.1,9.9,28.6c8.5-5.1,18.1-9.1,25.4-15.6c36.2-32.6,71.6-66.2,107.8-98.8c16.4-14.8,30.5-12.4,42.4,7.3
		c16.2,26.9,33.1,53.6,51.3,79.2c12.8,18.1,8.9,30.2-6.5,44.6c-95.4,89.1-168.9,192.9-207.6,318.7c-11.5,37.3-18.3,76-27.5,115.3
		c50.5,0,94.1,0.2,137.7,0c89.4-0.5,178.9-1.1,268.3-2.1c87.7-1,175.4-3.4,263.2-3.5c19,0,24.4-8.1,26.9-23.8
		c13.4-83.1,26.9-166.3,40.7-249.4c27.5-165.3,55.1-330.6,82.7-495.9c13.8-83.1,28.1-166.1,41-249.3c3.2-20.4,11.2-25.9,31.6-22.6
		c51.3,8.4,103,15.1,154.6,21.4c24.3,3,24.2,17.8,20.5,35.6c-17.1,82.5-34.3,164.9-51.4,247.3c-5,24.2-10.4,48.4-14.7,72.8
		c-1,5.5,1.7,11.6,2.7,17.5c5.7-3.4,13.4-5.3,16.8-10.3c37.5-54.6,74.4-109.6,111.4-164.5c19.9-29.5,39.6-59.1,59.5-88.7
		c28.9-43.2,30.9-43.1,59.8-1.2c62.5,90.7,125,181.3,187.7,271.8c5,7.2,12.2,12.7,18.4,19c2.2-1.1,4.4-2.2,6.6-3.3
		c-0.8-18.5-0.8-37.1-2.7-55.5c-10.9-109.4-22.4-218.7-33.2-328c-2.8-28.2,0.9-31.8,29.3-32.2c42.2-0.7,84.5-0.3,126.7-1
		c16-0.3,23.4,5.4,26,22.2c19,125.7,39.1,251.3,58.6,377c22.8,146.9,45.5,293.7,68.2,440.6c8.9,58,18.2,115.9,26.2,174
		c2.5,18.1,10.2,26.2,28.8,26.1c99.4-0.4,198.8-0.4,298.2,0c18.5,0.1,25.1-8.5,25-25.7c-0.2-32.3-0.4-64.6,0.1-96.9
		c0.4-21.1-8.8-29.6-30-29.2c-77,1.5-153.9,2.4-230.9,3c-41.5,0.3-44.3-1.4-50.5-43.1c-19.9-134-39-268-58.3-402.1
		c-15.3-106.3-29.9-212.6-46.2-318.7c-2.7-17.6,1.7-26,16.9-32.8c212-95.1,423.7-190.6,635.7-285.8c23.7-10.6,32.3-4.2,32.8,23.7
		c1.9,108.4,3.4,216.9,5.4,325.3c0.9,48,2.5,95.9,4.1,143.9c0.6,18.6-5.3,28.4-26.1,30.9c-103.4,12.1-206.6,25.7-309.8,38.7
		c-27,3.4-54,7.7-81.2,9.7c-16.5,1.2-21.9,8.4-20.2,23.8c5.9,52.5,11.4,105.1,17.3,157.7c2.1,18.9,5.4,37.6,7,56.6
		c1.7,19.9,13.2,27.2,31.3,27.5c19,0.2,38.1,0.7,57.1,0.2c20.8-0.6,29-11.5,26.8-32.4c-4.8-45.2-8.4-90.5-13-135.8
		c-2.1-20.6,4.9-29.2,26.9-31.3c108.6-10.4,217-22.7,325.5-33.9c21.1-2.2,30.8-11.8,30.5-33.6c-2.1-165.6-3.5-331.2-5.5-496.7
		c-1.1-91.9-3.3-183.7-4.5-275.6c-0.5-35.7,19.6-50.4,52.8-38.8c51.5,18,102.6,37,154,55.3c21.4,7.7,30.5,21.8,30.4,45.2
		c-1.3,203.7-1.4,407.5-2.6,611.2c-1.3,223.6-3.1,447.1-4.9,670.7c-0.2,20.6-2.1,41.3-2.6,61.9c-0.4,17.9,7.3,27.2,26.8,27.2
		c169-0.4,337.9-0.5,506.9,0.1c22.7,0.1,25.4-11.5,25.2-29.7c-2-151.5-3.6-303-5.3-454.5c-1.9-180.5-3.7-361-5.7-541.5
		c-1.3-115.9-3.2-231.8-4.5-347.6c-0.4-33.7,5.2-41.7,38.3-45.5c74.7-8.7,149.6-15.7,224.4-23.3c73.2-7.4,146.4-14.2,219.5-22.1
		c30.7-3.3,43.1,3.6,48.1,34.6c20,123.9,39.4,247.9,59,371.9c14.3,90.5,28.1,181.1,42.7,271.6c5.7,35.4-0.3,47-35.5,54.6
		c-106.5,22.9-213.2,45.2-319.9,67.5c-31.9,6.7-36.9,11.3-35.5,42.4c7.5,158.6,15.5,317.3,23.2,475.9c5.7,117.3,11.6,234.7,16.6,352
		c1.7,38.3-3.2,42.5-42,42.5c-285.8,0.1-571.5,0.1-857.3,0.1c-8.3,0-16.6,0.6-24.8-0.1c-18.7-1.5-26.2,5.1-25.9,25.4
		c1.1,72,0.4,144.1,0.4,216.2c0,202.1,0,404.2,0,606.3c0,32.4,0.1,32.5,32.9,32.6c29,0.1,58,0.5,87-0.1c18.1-0.3,30.8,5.6,40.9,21.9
		c27.3,44.4,56.3,87.8,84.3,131.8c15.2,23.9,9.5,35.5-18.8,35.6c-139.2,0.4-278.3,0-417.5,0.4c-25.2,0.1-29.7-13.6-29.6-35.1
		c0.4-217.8,0.3-435.7,0.2-653.5c0-36.8-0.1-36.4-35.9-41.4c-58.1-8.2-116-17.1-174-25.7c-20.7-3.1-26.2-13.5-18.2-33.1
		c17.6-42.8,34.8-85.8,51.3-129.1c5.6-14.7,14.1-20.6,29.8-19.4c51.1,4.1,102.4,6.6,153.4,11.4c22.1,2.1,30.3-4.6,27.9-27
		c-4.3-41.1-7.2-82.3-10.8-123.5c-1.3-15.1-7.9-23.4-24.8-24.1c-47.1-2.1-94-6.4-141.1-8c-7.7-0.3-19.1,6.8-23,13.7
		c-50.8,90.1-100.2,181-150.8,271.2c-9.2,16.4-1,26.3,7.7,37.6c69.2,89.9,137.9,180.2,207.9,269.4c14.8,18.9,12.8,30-4.9,44.8
		C3143,3855.7,3004,3973.5,2864.7,4091c-30.6,25.8-31.7,25.6-54.5-7.2c-14.1-20.4-27.3-41.6-42.6-61.1c-14.7-18.7-13.3-31.8,5-48.1
		c80.2-71.8,158.8-145.4,239.1-217.1c17-15.1,18.1-26.9,8-46.1c-42.5-81.4-84.1-163.2-124.3-245.7c-6.1-12.5-8-30.7-4.1-43.9
		c28.9-98.3,59.9-195.9,90.1-293.8c8.9-28.8,6.5-32-23-32.2c-35.6-0.3-71.2,0.4-106.8-0.2c-16.7-0.3-23.1,6-23.5,23.3
		c-3.1,128.2-7.1,256.4-11,384.6c-2.5,82.7-5.3,165.4-8.1,248c-0.8,24.3-6.5,28.5-30.9,23.1c-48.4-10.5-96.7-21.7-145.2-31.6
		c-19.7-4-26.7-13.3-26.3-34c3.2-166.4,5.1-332.8,7.7-499.2c0.5-31.4,1.4-62.9,3.1-94.2c1.1-21.2-4.6-32.6-28.2-25.5
		c-2.4,0.7-4.9,0.9-7.4,1.1c-47.8,5.6-47.6,5.6-47.9,53.4c-1.6,216.1-3.2,432.2-5,648.3c-0.5,59.6-1.6,119.2-3.2,178.7
		c-0.5,19,4.9,27.1,25.8,25c25.5-2.7,51.4-3.7,76.9-1.8c11.1,0.8,25.8,8,31.6,17c28.8,44.4,55.5,90.2,82.4,135.9
		c13.7,23.2,7.9,32.6-19.9,33.1c-104.3,1.9-208.6,3.5-312.9,5.4c-21.5,0.4-42.9,1.9-64.4,2.6c-18.4,0.6-26.2-7.4-26.7-26.8
		c-1.7-71.1-5.5-142.2-7.1-213.3c-0.5-20.6-7.9-26.7-28.1-26.8c-54.6-0.2-109.2-2.5-163.8-4.3c-23.5-0.8-27.9-7.5-18.5-29.6
		c17.5-41.1,34.9-82.3,54.6-122.3c4.4-9,17.2-17.8,27.3-19.4c34.2-5.5,68.9-8,103.5-11.1c16.7-1.5,24.5-8.3,24.8-26.5
		c2.7-133.2,6.3-266.4,9.7-399.6c1.5-60.4,2.5-120.8,5-181.1c0.9-22.3-6.1-31-29.4-30.8c-82,0.8-164,0.3-246-0.8
		c-18.9-0.2-26.8,4.9-26.7,25c0.5,79.5-0.4,159-0.2,238.5c0,7.4,3.9,14.8,6,22.2c6.7-3.9,14.4-6.9,20.1-12
		c42.5-38.1,84.6-76.5,126.7-115c16.3-14.9,29.5-13.5,43.2,4.4c17.7,22.9,36.3,45.4,56.4,66.1c17.2,17.7,15.8,30.1-1.6,47.4
		c-72.6,72.2-133.8,153.1-183.9,242.7c-64.3,115-86.9,237.6-74.6,368.3c6.6,69.9,8.7,140.3,11.5,210.5c0.3,8.2-6,19-12.5,24.9
		c-40.5,36.7-81.7,72.6-123.2,108.2c-5.6,4.8-17,10.4-20.9,8c-6.1-3.8-9.6-13.8-11.5-21.9c-1.9-7.8-0.5-16.5-0.5-24.8
		c-0.7-172.3,1.5-344.6-3-516.8c-4.4-167.8-14.5-335.5-24.8-503c-3-49.1-15.5-97.7-23.4-146.5c-2.8-17-12.5-23.5-29.5-22.3
		c-14.8,1-29.8,0.1-44.7,0.2c-34.5,0.1-36.2,1.4-37,36.3c-2.6,111.7-4.6,223.5-7.2,335.2c-2.7,115-5.7,230-8.8,345
		c-1,37.9-3.8,39.9-42.2,36.3c-42-3.9-84-7.2-125.9-11.6c-33.4-3.5-34.8-8.1-30.4-41.2c24.5-184.5-44.3-334.1-223-401.2
		c-26.8-10.1-59.1-15.3-87-10.7c-79.4,12.9-108.7,111.7-55.8,178.4c23.9,30.1,56.1,41.2,93.2,44.6c37.8,3.5,75.3,9.5,112.9,15.1
		c23.5,3.5,35.7,15.9,35.7,41.9c-0.1,38.8,3.1,77.7,4.7,116.5c0.9,21.6-9.9,33.5-31.5,31.7c-98.6-8.4-195.1-25.5-283.5-73.2
		c-78.3-42.3-131.3-103.4-148-193.8c-31.7-172.6,84.7-324.9,258.9-342c96-9.4,183,5.2,257.3,70
		C1433.3,3293.4,1448.7,3311.8,1470.2,3333.9z M2618.3,2891.3c-7.6-12.9-11.1-19.4-15.1-25.4c-33.1-49.5-65.6-99.4-99.8-148.2
		c-12.6-17.9-16.2-32.8-6.5-54.2c21.9-48.1,40.5-97.6,60.2-146.7c11.2-27.9,9.2-30.5-21.6-30.6c-43-0.1-86.1-0.9-129.1,0.4
		c-19.1,0.6-30.3-6.4-39.8-22.6c-24.7-42.1-50.7-83.4-76.5-124.8c-4.5-7.3-10.3-13.8-17.6-23.5c-8.1,10.8-14.3,18.2-19.5,26.3
		c-26.4,41-53.2,81.9-78.5,123.6c-9.3,15.4-20.4,21.3-38.3,21c-51.3-0.9-102.6-0.5-154-0.3c-25.3,0.1-27.4,3.5-15.2,25.3
		c29.5,52.7,58.8,105.5,89.4,157.5c9.5,16.2,8.3,27.8-3.5,42.1c-42.1,51.1-83.2,103-124.5,154.7c-5.2,6.5-9.3,13.8-15.6,23.2
		c9.6,1,14.4,2,19.3,2c72.8,0.1,145.7,0.8,218.5-0.3c21-0.3,33.5,6.9,43.1,25.5c17.2,33,36.2,65,55.3,96.9
		c3.8,6.4,11.1,10.8,16.7,16.1c4.7-6.3,10.9-11.9,13.9-18.9c13-30.4,26.1-60.8,37.1-92c7.2-20.5,19.2-27.9,40.6-27.6
		c76.1,0.9,152.3,0.3,228.5,0.3C2594.5,2891.3,2603.3,2891.3,2618.3,2891.3z M3435.4,2842.6c0,0.1,0,0.1,0,0.2
		c19,0,38.1-0.6,57.1,0.2c20.5,0.8,29.2-6.5,30.3-28.5c5.3-111.5,12.2-222.9,18.3-334.4c1.2-21.7-7.6-30-30.1-28.2
		c-59.3,4.7-118.6,9.7-177.9,14.9c-19.2,1.7-27.7,11.1-24.2,31.6c3.6,21.1,4.7,42.7,7.2,64c10,86.2,20,172.3,30,258.5
		c1.7,14.8,9.8,22,24.7,22C3392.3,2842.6,3413.9,2842.6,3435.4,2842.6z M4574.3,1641.5c-19.9,0-39.8-0.1-59.6,0
		c-33.1,0.3-42.6,9-40.3,41c7.5,103.9,16.1,207.7,23.5,311.6c1.7,23.1,13.6,30.8,34.4,27.4c51.3-8.4,102.7-16.9,153.8-26.5
		c16.9-3.2,25.2-15.5,22.8-33.1c-13.1-96.5-26.4-193.1-39.9-289.6c-3-21.2-15.6-31.7-37.6-31
		C4612.4,1642,4593.4,1641.5,4574.3,1641.5z M3253.8,1966.8c0-14.1,0.1-28.1,0-42.2c-0.2-29-4-31.3-29.6-17.6
		c-69.2,37-138.3,74.2-207.6,111.3c-35.4,18.9-34.8,18.6-22.7,56.5c5.4,17,12.8,21.3,30.6,16.5c54.9-14.9,110.4-27.6,165.6-41.4
		C3253.9,2034.1,3253.9,2034,3253.8,1966.8z"/>
	<path class="st0" d="M1325.4,2672.1c0-25.7-0.3-51.3,0.1-77c0.3-26.3,9.1-34.9,35.5-37.4c60-5.7,120-12.5,180.1-17.4
		c23.9-2,30.1-14,29.6-35.9c-1.5-66.2-2.3-132.5-2-198.7c0.1-21.3-10-30.6-29-32.5c-86.3-8.8-172.7-17.2-259-25.7
		c-34.5-3.4-69.1-6.8-103.6-10.2c-19.4-1.9-30.3-12.4-30.6-32.2c-1.9-139.9-3.9-279.8-5.2-419.7c-0.2-25.9,15-36,38.7-27.1
		c211.2,79.2,422.3,158.7,633.6,237.6c23.5,8.8,29.1,23.4,24.8,46.3c-42.9,228.8-85.6,457.6-127.9,686.4
		c-3.7,19.9-13.1,30.8-34,32.4c-75,5.8-149.9,12.3-224.9,18.3c-29.7,2.4-59.4,3.8-89.1,6.3c-21.7,1.8-33.3-6.8-33.4-29
		c-0.1-28.1,0-56.3,0-84.4C1328,2672.1,1326.7,2672.1,1325.4,2672.1z M1559.2,2123.4c5.2-4.7,16.4-10.6,20.3-19.7
		c2.4-5.5-4.3-20-10.7-23.4c-70.9-37.4-142.2-73.9-214-109.4c-18-8.9-31,0.4-31.6,20.5c-0.7,22.3-2.1,45,1,66.9
		c1.4,9.8,12.1,24.2,20.7,25.9C1413.5,2098.2,1482.7,2109.8,1559.2,2123.4z"/>
	<path class="st0" d="M4245.4,2302c0,124.2,0,248.4,0,372.5c0,32.5-5,37.9-36.9,38.2c-34.8,0.4-69.5,0.4-104.3,0
		c-31.1-0.4-36.5-6.1-35.6-36.5c1.3-45.5,3.7-90.9,4.5-136.4c0.6-33.7-4.3-38.7-39.1-38.4c-60.4,0.6-120.8,2.7-181.1,3.9
		c-31.8,0.6-37-4.8-37.9-37c-5.1-196.9-10.3-393.8-15.6-590.7c-0.5-19-2.5-38-3.2-57c-0.7-18.9,7.2-29.4,27.9-28.9
		c29.8,0.7,59.6,0.9,89.4-0.1c21.7-0.7,28.9,9,29.3,29.8c2.7,137.4,6.2,274.7,9.5,412c0.5,19.8,2.1,39.7,2.4,59.5
		c0.3,17,8.8,23.2,25,22.9c26.5-0.5,53-0.5,79.5,0c18.7,0.4,24.2-8.5,23.4-26.1c-6.4-131.4-12.3-262.8-18.3-394.2
		c-0.5-10.7-1.4-21.6-0.2-32.2c1.8-15.8,11.1-24.6,27.5-19.2c45.5,15,90.6,31.1,136,46.3c17.2,5.8,18,19.1,18,33.9
		C4245.4,2050.4,4245.4,2176.2,4245.4,2302z"/>
	<path class="st0" d="M755.9,1869.9c-6.8,7.8-12.2,15.9-19.4,22c-44.9,37.9-90.5,75-135.1,113.3c-7.4,6.3-16.5,17.9-15,25.1
		c1.5,7.2,14.4,14.1,23.7,17.2c39.9,13.3,80.1,26.2,120.7,37.2c21.9,5.9,31.5,16.7,31,40c-1.1,58.7,0.3,117.5-1,176.3
		c-0.2,10.6-6.3,25.1-14.5,30.1c-6.2,3.7-21.8-2.3-29.9-8.4c-110.4-83.1-220.1-167.1-330.4-250.5c-18.8-14.2-22-27.9-8.4-48.1
		c70.1-104.4,139.2-209.4,209-314.1c16.6-24.9,29.6-25.5,47.8-2.4c36.4,46.1,72.6,92.4,108.5,138.9
		C747.8,1852.7,750.8,1860.4,755.9,1869.9z"/>
	<path class="st0" d="M4019.7,1054.7c20.9-54.1,38.7-111.1,64.3-164.3c45.9-95.3,115-169.6,215.7-209.4
		c46.5-18.4,94.7-22.7,143.6-10.1c94.8,24.5,139.3,108.8,112.1,212c-21.7,82.3-65,154-115.5,220.8c-70.4,93-145.8,182.4-217,274.8
		c-70.2,91.1-126.4,189.9-154.5,302.9c-1.7,7-8.3,12.8-12.6,19.2c-5.2-4.2-13.1-7.4-15.3-12.8c-46.6-114.4-126.4-203.1-218.2-282.1
		c-85.9-74-175.4-144-259.5-220c-43.3-39.1-80.4-85.6-116.3-131.9c-33-42.4-54.8-91.8-50.4-147c6.6-81.1,58.5-128.1,130.6-152.3
		c123-41.2,233-8,332,69.1c70.9,55.2,119.5,127.6,152.8,210.5C4014.3,1040.8,4016.9,1047.8,4019.7,1054.7
		C4020.3,1056.1,4021.5,1057.3,4019.7,1054.7z M4031.4,1118.3c-3,0-6-0.1-9-0.1c-4.5-13.8-8.8-27.5-13.4-41.3
		c-37.6-112.5-99.4-207.6-202.7-270c-91.5-55.2-188.9-74.4-291.2-30.9c-92.9,39.5-126.2,121.2-85,213.1
		c15.4,34.2,37.4,66.4,60.8,95.9c74.2,93.5,168.9,165.3,261.1,239.4c98.4,79.1,193.6,161.2,260.3,270.5c14.7,24,27.4,49.3,42.9,77.3
		c35.6-132,104.5-241.1,185.9-343.5c69.5-87.5,140.1-174.1,206.8-263.6c44-59.1,79.2-124,95.4-197.4
		c23.2-105.7-38.9-183.8-147.2-186.5c-71.1-1.8-131.1,25.6-183.4,70c-105.4,89.7-156.6,208.3-176.6,342.6
		C4034.8,1102.1,4032.9,1110.1,4031.4,1118.3z"/>
</g>
</svg>
